<?xml version="1.0" encoding="UTF-8" standalone="no"?>
<svg width="244px" height="18px" viewBox="0 0 244 18" version="1.1" xmlns="http://www.w3.org/2000/svg" xmlns:xlink="http://www.w3.org/1999/xlink">
    <!-- Generator: Sketch 3.7.2 (28276) - http://www.bohemiancoding.com/sketch -->
    <title>Group</title>
    <desc>Created with Sketch.</desc>
    <defs></defs>
    <g id="Suits-and-Rebels" stroke="none" stroke-width="1" fill="none" fill-rule="evenodd">
        <g id="Group" transform="translate(0.000000, -3.000000)">
            <g id="Group-15" transform="translate(0.000000, 3.000000)">
                <path d="M0.5376,14.9758 L1.7386,13.5528 C3.5286,15.1718 5.2456,15.9808 7.6236,15.9808 C9.9286,15.9808 11.4496,14.7548 11.4496,13.0628 L11.4496,13.0138 C11.4496,11.4198 10.5906,10.5128 6.9866,9.7528 C3.0386,8.8948 1.2246,7.6198 1.2246,4.7998 L1.2246,4.7508 C1.2246,2.0538 3.6026,0.0678 6.8636,0.0678 C9.3646,0.0678 11.1546,0.7788 12.8956,2.1768 L11.7676,3.6718 C10.1746,2.3718 8.5796,1.8088 6.8146,1.8088 C4.5836,1.8088 3.1616,3.0348 3.1616,4.5798 L3.1616,4.6278 C3.1616,6.2468 4.0436,7.1538 7.8206,7.9628 C11.6456,8.7958 13.4106,10.1948 13.4106,12.8178 L13.4106,12.8668 C13.4106,15.8098 10.9586,17.7218 7.5506,17.7218 C4.8286,17.7218 2.5976,16.8148 0.5376,14.9758 L0.5376,14.9758 Z" id="Fill-1" fill="#343433"></path>
                <path d="M21.9897,10.2922 L21.9897,0.3132 L23.9267,0.3132 L23.9267,10.1692 C23.9267,13.8722 25.9127,15.9562 29.1747,15.9562 C32.3377,15.9562 34.3477,14.0442 34.3477,10.2922 L34.3477,0.3132 L36.2857,0.3132 L36.2857,10.1452 C36.2857,15.1472 33.4167,17.7462 29.1257,17.7462 C24.8837,17.7462 21.9897,15.1472 21.9897,10.2922" id="Fill-3" fill="#343433"></path>
                <polygon id="Fill-5" fill="#343433" points="45.943 17.477 47.88 17.477 47.88 0.313 45.943 0.313"></polygon>
                <polygon id="Fill-7" fill="#343433" points="62.3452 2.1027 56.5832 2.1027 56.5832 0.3127 70.0692 0.3127 70.0692 2.1027 64.3072 2.1027 64.3072 17.4767 62.3452 17.4767"></polygon>
                <path d="M77.104,14.9758 L78.305,13.5528 C80.095,15.1718 81.812,15.9808 84.19,15.9808 C86.496,15.9808 88.015,14.7548 88.015,13.0628 L88.015,13.0138 C88.015,11.4198 87.158,10.5128 83.553,9.7528 C79.605,8.8948 77.791,7.6198 77.791,4.7998 L77.791,4.7508 C77.791,2.0538 80.168,0.0678 83.43,0.0678 C85.931,0.0678 87.721,0.7788 89.462,2.1768 L88.334,3.6718 C86.741,2.3718 85.147,1.8088 83.381,1.8088 C81.15,1.8088 79.727,3.0348 79.727,4.5798 L79.727,4.6278 C79.727,6.2468 80.61,7.1538 84.386,7.9628 C88.211,8.7958 89.977,10.1948 89.977,12.8178 L89.977,12.8668 C89.977,15.8098 87.525,17.7218 84.117,17.7218 C81.395,17.7218 79.164,16.8148 77.104,14.9758" id="Fill-8" fill="#343433"></path>
                <path d="M130.5513,9.0656 C133.1253,9.0656 134.9653,7.7426 134.9653,5.5356 L134.9653,5.4866 C134.9653,3.3776 133.3463,2.1026 130.5753,2.1026 L125.2793,2.1026 L125.2793,9.0656 L130.5513,9.0656 Z M123.3423,0.3126 L130.7233,0.3126 C132.8313,0.3126 134.5243,0.9506 135.6033,2.0286 C136.4363,2.8626 136.9263,4.0646 136.9263,5.4126 L136.9263,5.4616 C136.9263,8.3056 134.9653,9.9736 132.2683,10.4636 L137.5393,17.4766 L135.1613,17.4766 L130.1833,10.8066 L125.2793,10.8066 L125.2793,17.4766 L123.3423,17.4766 L123.3423,0.3126 Z" id="Fill-9" fill="#343433"></path>
                <polygon id="Fill-10" fill="#343433" points="145.9712 0.3127 158.3782 0.3127 158.3782 2.0787 147.9082 2.0787 147.9082 7.9377 157.2752 7.9377 157.2752 9.7037 147.9082 9.7037 147.9082 15.7107 158.5012 15.7107 158.5012 17.4767 145.9712 17.4767"></polygon>
                <path d="M174.6333,9.6789 L169.2133,9.6789 L169.2133,15.7359 L174.9763,15.7359 C177.5753,15.7359 179.1943,14.5829 179.1943,12.6709 L179.1943,12.6209 C179.1943,10.7579 177.6243,9.6789 174.6333,9.6789 L174.6333,9.6789 Z M178.2373,4.8489 C178.2373,3.1569 176.8893,2.0539 174.4373,2.0539 L169.2133,2.0539 L169.2133,7.9629 L174.2893,7.9629 C176.6183,7.9629 178.2373,6.9079 178.2373,4.8979 L178.2373,4.8489 Z M167.3013,0.3129 L174.6083,0.3129 C176.5703,0.3129 178.1143,0.8769 179.0953,1.8329 C179.8073,2.5689 180.1983,3.4759 180.1983,4.5789 L180.1983,4.6279 C180.1983,6.8599 178.8253,8.0119 177.4773,8.5999 C179.5123,9.2129 181.1553,10.3899 181.1553,12.7439 L181.1553,12.7929 C181.1553,15.7359 178.6793,17.4769 174.9273,17.4769 L167.3013,17.4769 L167.3013,0.3129 Z" id="Fill-11" fill="#343433"></path>
                <polygon id="Fill-12" fill="#E07E59" points="202.436 17.4768 189.906 17.4768 189.906 15.7108 200.499 15.7108 200.499 9.7038 191.132 9.7038 191.132 7.9378 200.499 7.9378 200.499 2.0788 190.029 2.0788 190.029 0.3128 202.436 0.3128"></polygon>
                <polygon id="Fill-13" fill="#343433" points="211.2349 0.3127 213.1719 0.3127 213.1719 15.6867 222.8339 15.6867 222.8339 17.4767 211.2349 17.4767"></polygon>
                <path d="M230.187,14.9758 L231.388,13.5528 C233.178,15.1718 234.895,15.9808 237.273,15.9808 C239.579,15.9808 241.098,14.7548 241.098,13.0628 L241.098,13.0138 C241.098,11.4198 240.241,10.5128 236.636,9.7528 C232.688,8.8948 230.874,7.6198 230.874,4.7998 L230.874,4.7508 C230.874,2.0538 233.251,0.0678 236.513,0.0678 C239.014,0.0678 240.804,0.7788 242.545,2.1768 L241.417,3.6718 C239.824,2.3718 238.23,1.8088 236.464,1.8088 C234.233,1.8088 232.811,3.0348 232.811,4.5798 L232.811,4.6278 C232.811,6.2468 233.693,7.1538 237.469,7.9628 C241.294,8.7958 243.06,10.1948 243.06,12.8178 L243.06,12.8668 C243.06,15.8098 240.608,17.7218 237.2,17.7218 C234.478,17.7218 232.247,16.8148 230.187,14.9758" id="Fill-14" fill="#343433"></path>
            </g>
            <text id="+" font-family="Gotham-Medium, Gotham" font-size="24.5171" font-weight="400" fill="#E07E59">
                <tspan x="99" y="20">+</tspan>
            </text>
        </g>
    </g>
</svg>